<svg width="45" height="45" viewBox="0 0 45 45" fill="none" xmlns="http://www.w3.org/2000/svg">
<path d="M20.983 1.05959C21.4986 -0.354135 23.4992 -0.35226 24.0167 1.05959L27.6129 10.8807C28.1593 12.3729 29.0245 13.728 30.1481 14.8517C31.2718 15.9753 32.6269 16.8405 34.1191 17.3868L43.9383 20.983C45.3539 21.4986 45.3539 23.4992 43.9383 24.0167L34.1191 27.6129C32.6269 28.1593 31.2718 29.0245 30.1481 30.1481C29.0245 31.2718 28.1593 32.6269 27.6129 34.1191L24.0167 43.9383C23.4992 45.3539 21.4986 45.3539 20.983 43.9383L17.3868 34.1191C16.8405 32.6269 15.9753 31.2718 14.8517 30.1481C13.728 29.0245 12.3729 28.1593 10.8807 27.6129L1.05959 24.0167C-0.35226 23.4992 -0.354135 21.5005 1.05959 20.983L10.8807 17.3868C12.3729 16.8405 13.728 15.9753 14.8517 14.8517C15.9753 13.728 16.8405 12.3729 17.3868 10.8807L20.983 1.05959ZM20.0362 11.8519C19.3482 13.7286 18.2596 15.4329 16.8463 16.8463C15.4329 18.2596 13.7286 19.3482 11.8519 20.0362L5.1189 22.4999L11.8519 24.9655C13.7292 25.6524 15.4341 26.7405 16.8476 28.154C18.2611 29.5676 19.3493 31.2724 20.0362 33.1497L22.4999 39.879L24.9655 33.1497C25.6524 31.2724 26.7405 29.5676 28.154 28.154C29.5676 26.7405 31.2724 25.6524 33.1497 24.9655L39.879 22.4999L33.1497 20.0362C31.2724 19.3493 29.5676 18.2611 28.154 16.8476C26.7405 15.4341 25.6524 13.7292 24.9655 11.8519L22.4999 5.1189L20.0362 11.8519Z" fill="white"/>
</svg>
